<?xml version="1.0" encoding="UTF-8"?>
<svg version="1.1" xmlns="http://www.w3.org/2000/svg" width="500" height="500">
<path d="M0 0 C1.92280644 -0.00300219 3.84561228 -0.0064071 5.76841736 -0.01017761 C10.93203256 -0.01891372 16.09563114 -0.02135127 21.25925303 -0.0219934 C24.50136768 -0.0227098 27.74347826 -0.02485514 30.98559189 -0.02749062 C42.34179701 -0.03670941 53.69799048 -0.04082984 65.05419922 -0.04003906 C75.56678476 -0.03943909 86.07931886 -0.04998406 96.59189141 -0.06578273 C105.67964131 -0.07894354 114.76737456 -0.08421941 123.85513389 -0.08358365 C129.25533039 -0.08333118 134.65548105 -0.08604147 140.05566788 -0.0967617 C229.65798409 -0.26210684 229.65798409 -0.26210684 262.19091797 31.27807617 C279.54943303 49.17294984 286.8679193 71.93555148 289.97216797 96.14526367 C290.22490038 97.92916771 290.22490038 97.92916771 290.48273849 99.74911022 C291.02854868 104.14454786 291.11755461 108.47317391 291.11260986 112.89802551 C291.11706655 114.16602219 291.11706655 114.16602219 291.12161326 115.45963496 C291.13023918 118.27388146 291.13180338 121.08808511 291.13330078 123.90234375 C291.13793375 125.9286559 291.14295905 127.95496718 291.14834595 129.98127747 C291.16143678 135.47830876 291.1679099 140.97532785 291.17235661 146.47237229 C291.17529625 149.91863748 291.17940298 153.36489941 291.18386078 156.81116295 C291.19753481 167.62713219 291.20719862 178.44309389 291.21106267 189.25907117 C291.21552567 201.67933026 291.23299176 214.09947832 291.26206326 226.51970369 C291.28382556 236.1575768 291.29377484 245.79541904 291.29510379 255.43331641 C291.29614264 261.17023127 291.30184969 266.90704179 291.3199234 272.64393044 C291.58012421 360.30778293 291.58012421 360.30778293 261.53076172 392.63745117 C235.77804545 417.87904483 201.3393899 422.30025979 166.79199219 422.29052734 C164.66181886 422.29352387 162.53164608 422.29692753 160.401474 422.30070496 C154.64289228 422.30949961 148.88432545 422.31188117 143.12573767 422.31252074 C139.51938188 422.3132339 135.91302982 422.31537325 132.30667496 422.31801796 C119.70070406 422.32725687 107.0947437 422.33135473 94.48876953 422.33056641 C82.77820245 422.32996623 71.06768153 422.34051002 59.35712612 422.35631007 C49.27005991 422.36942982 39.1830087 422.37474844 29.09593403 422.374111 C23.0860838 422.37385728 17.07627461 422.37663801 11.06643295 422.38728905 C5.40776367 422.39704481 -0.25082595 422.39699849 -5.90949821 422.38977242 C-7.97247244 422.38873576 -10.03545182 422.39103401 -12.09841728 422.39713287 C-44.60774625 422.48692728 -77.0978167 417.68013656 -101.25048828 393.95385742 C-102.16701172 393.02702148 -103.08353516 392.10018555 -104.02783203 391.14526367 C-104.91341797 390.26999023 -105.79900391 389.3947168 -106.71142578 388.49291992 C-131.1928411 363.11720633 -133.18290633 327.8253655 -133.1730957 294.50415039 C-133.17609383 292.45574381 -133.17949785 290.40733779 -133.18327332 288.3589325 C-133.19205144 282.83173238 -133.19444882 277.30454778 -133.1950891 271.77734137 C-133.19580317 268.31334239 -133.19794423 264.84934728 -133.20058632 261.38534927 C-133.20981957 249.26983645 -133.21392378 237.15433458 -133.21313477 225.03881836 C-133.21253466 213.79517514 -133.22307859 202.55158001 -133.23887843 191.30794895 C-133.25201 181.6131645 -133.25731631 171.91839567 -133.25667936 162.22360241 C-133.256426 156.45181465 -133.25918661 150.68006966 -133.26985741 144.90829086 C-133.2796334 139.47283885 -133.2795534 134.0374697 -133.27234077 128.60201454 C-133.2713066 126.62373163 -133.27358703 124.6454433 -133.27970123 122.66716957 C-133.37342328 90.20259134 -129.35511712 58.45900091 -107.02783203 33.14526367 C-104.48331336 30.64855433 -101.79130551 28.394368 -99.02783203 26.14526367 C-98.30080078 25.5084668 -97.57376953 24.87166992 -96.82470703 24.21557617 C-78.32995911 8.47666818 -54.12977078 1.75017476 -30.24441528 0.5801239 C-29.42449667 0.5388694 -28.60457806 0.49761489 -27.75981343 0.45511025 C-18.50731476 0.02501379 -9.2606772 -0.00294206 0 0 Z " fill="#FE7E30" transform="translate(172.02783203125,38.854736328125)"/>
<path d="M0 0 C9.14905161 7.89673074 9.14905161 7.89673074 12.43847656 12.53125 C14.22840216 14.94269035 14.22840216 14.94269035 16.97363281 15.03125 C17.885 14.89847656 18.79636719 14.76570313 19.73535156 14.62890625 C20.70730469 14.49484375 21.67925781 14.36078125 22.68066406 14.22265625 C25.60343339 13.69865121 25.60343339 13.69865121 29.11035156 12.62890625 C33.15580202 11.48396744 36.23022578 11.40716043 40.42285156 11.69140625 C43.18581229 14.45436698 42.75486247 16.13918715 42.79785156 20.00390625 C42.53927273 35.82569881 35.56976417 49.33965825 25.52441406 61.19921875 C20.14594872 67.57739884 17.49305711 74.02449389 14.87670898 81.8996582 C12.77559744 88.07516345 10.05945308 93.77848359 6.96264648 99.51367188 C5.14284078 102.9410688 4.42285156 104.71161804 4.42285156 108.69140625 C6.68417363 110.42478133 8.772916 111.80311832 11.23535156 113.19140625 C11.92532227 113.58577881 12.61529297 113.98015137 13.32617188 114.38647461 C15.34452228 115.51645995 17.37739203 116.6114078 19.42285156 117.69140625 C20.79763672 118.42037109 20.79763672 118.42037109 22.20019531 119.1640625 C33.50166692 124.14527985 47.94685801 122.15440933 59.85644531 120.6171875 C63.05036295 120.70955346 64.22281975 121.40499905 66.42285156 123.69140625 C67.96558967 133.10210874 63.6525175 141.76904328 58.55957031 149.53125 C50.98319118 159.38509781 41.59670028 166.1723292 31.24975586 172.8605957 C22.75897743 178.30097539 22.75897743 178.30097539 17.953125 186.75683594 C17.75863353 191.20557246 18.82440529 193.30212851 21.42285156 196.69140625 C21.48535156 199.69140625 21.48535156 199.69140625 20.42285156 202.69140625 C11.17538106 210.99041824 -1.6202988 210.38970711 -13.27294922 209.84667969 C-27.71462543 208.87349617 -40.26201733 200.84392045 -51.50292969 192.2578125 C-55.99263059 188.86728508 -60.10583962 189.03592149 -65.57714844 189.69140625 C-70.67836322 191.17321861 -75.58532876 193.10176477 -80.51464844 195.06640625 C-103.32303241 204.05711011 -103.32303241 204.05711011 -110.95214844 201.56640625 C-116.8362865 198.81084875 -119.97866049 195.70895728 -122.57714844 189.69140625 C-127.95876007 190.49569107 -130.40296355 194.612502 -133.57714844 198.69140625 C-135.44017949 201.48284088 -135.44017949 201.48284088 -136.57714844 203.69140625 C-135.84496094 203.93890625 -135.11277344 204.18640625 -134.35839844 204.44140625 C-127.17000892 207.67214311 -121.61003649 214.79242549 -118.46386719 221.890625 C-116.41486362 228.36258782 -115.33286391 235.0185182 -117.54980469 241.5625 C-123.55635982 252.55499783 -134.97121718 258.76263024 -146.64306641 262.32128906 C-151.25403304 263.60158927 -155.90001385 264.68251107 -160.57714844 265.69140625 C-161.34115967 265.86792725 -162.1051709 266.04444824 -162.89233398 266.22631836 C-168.48790407 267.19563372 -174.22383587 266.9363749 -179.88964844 266.94140625 C-180.90466431 266.94241837 -180.90466431 266.94241837 -181.94018555 266.94345093 C-201.88434693 266.91178883 -222.96954596 263.92861716 -238.45214844 250.12890625 C-239.15339844 249.32453125 -239.85464844 248.52015625 -240.57714844 247.69140625 C-241.29902344 246.90765625 -242.02089844 246.12390625 -242.76464844 245.31640625 C-246.37192918 240.09206863 -247.50870763 233.95614185 -246.57714844 227.69140625 C-243.47107867 217.63197577 -237.60303791 210.63050459 -228.63574219 205.2890625 C-221.60639638 201.61728417 -214.46887987 199.04661318 -206.70214844 197.50390625 C-200.02678334 195.75789312 -197.94759252 191.35106789 -194.57714844 185.69140625 C-193.79113037 184.56008738 -192.99367089 183.43665463 -192.18652344 182.3203125 C-191.7748291 181.74909668 -191.36313477 181.17788086 -190.93896484 180.58935547 C-190.32674072 179.74268311 -190.32674072 179.74268311 -189.70214844 178.87890625 C-187.0031726 175.12321275 -185.10866344 172.32930329 -184.57714844 167.69140625 C-187.52330397 165.12539981 -190.41540925 163.23501505 -193.88964844 161.50390625 C-202.30238882 156.89092027 -206.94934561 150.27623644 -209.88574219 141.26953125 C-213.24193857 128.75490068 -213.99350167 112.23681928 -207.57714844 100.69140625 C-207.17625 99.91023438 -206.77535156 99.1290625 -206.36230469 98.32421875 C-199.51015431 86.52660331 -185.76737952 80.18952102 -173.35839844 75.82421875 C-171.96306885 75.32535156 -171.96306885 75.32535156 -170.53955078 74.81640625 C-168.68898791 74.16420306 -166.82997224 73.53536997 -164.96240234 72.93359375 C-158.34338246 70.61121695 -155.20030364 67.64219677 -151.57714844 61.69140625 C-150.91714844 60.72203125 -150.25714844 59.75265625 -149.57714844 58.75390625 C-148.12690463 54.31253459 -149.32836005 51.06978016 -150.57714844 46.69140625 C-152.03826476 40.61627397 -151.80041713 34.44381634 -151.81738281 28.234375 C-151.82715016 26.06602488 -151.85824048 23.89859937 -151.88964844 21.73046875 C-151.89617365 20.35026601 -151.90142601 18.97005655 -151.90527344 17.58984375 C-151.91461914 16.33864746 -151.92396484 15.08745117 -151.93359375 13.79833984 C-151.57714844 10.69140625 -151.57714844 10.69140625 -150.24414062 8.82275391 C-147.43937714 6.91922813 -144.70139117 6.52367249 -141.40917969 6.2265625 C-140.59771484 6.14857422 -139.78625 6.07058594 -138.95019531 5.99023438 C-137.26288654 5.8345026 -135.57538839 5.68080718 -133.88769531 5.52929688 C-123.93053583 4.56418213 -116.30327033 1.82104698 -107.38964844 -2.62109375 C-74.14934872 -18.79034995 -30.97723272 -25.70247173 0 0 Z " fill="#131218" transform="translate(378.5771484375,81.30859375)"/>
<path d="M0 0 C3.90714478 1.84232112 7.33095318 4.21308575 10.87890625 6.66015625 C17.96077254 11.13360033 30.23002385 10.03576741 38.21142578 8.60302734 C41.22200646 7.85823936 44.13216682 6.90901223 47.0546875 5.875 C50.38331532 4.88612383 52.55459273 4.45716891 56 5 C58.27276982 6.79755431 60.13774215 8.49414832 62.125 10.5625 C75.5951102 23.7247994 88.3027614 27.3563058 106.73583984 27.15405273 C109.15759953 27.11259994 111.57870181 27.06247891 114 27 C112.38575251 35.39594242 109.66665481 43.37527278 106.875 51.4375 C106.63011841 52.14732025 106.38523682 52.8571405 106.13293457 53.58847046 C97.16276621 79.50249317 87.76705308 102.17255428 61.93066406 115.02978516 C57.35172731 117.17728742 52.704205 119.14458513 48 121 C47.28779297 121.28391602 46.57558594 121.56783203 45.84179688 121.86035156 C40.34127376 124 40.34127376 124 37.25 124 C33.91719718 122.5187543 32.77285571 121.21740482 31 118 C30.05633464 112.91469224 30.37496829 108.38551173 32.875 103.8125 C37.02111896 97.99379896 43.35074985 93.913637 49.9375 91.3125 C53.15817137 89.93221227 54.40870826 89.08897809 56 86 C56 84.68 56 83.36 56 82 C49.47031364 81.32480992 46.05169981 83.27571233 40.75 86.9375 C40.00492187 87.43749512 39.25984375 87.93749023 38.4921875 88.45263672 C26.57122258 96.56064595 16.19286286 105.96840183 6.8046875 116.9140625 C4.78348724 119.25025501 2.70621161 121.52964851 0.625 123.8125 C-2.45095565 127.22043062 -5.41861956 130.68628828 -8.3125 134.25 C-9.42238281 135.61125 -9.42238281 135.61125 -10.5546875 137 C-11.84028271 138.57721585 -13.1251598 140.15503441 -14.40332031 141.73828125 C-28.1818828 158.72729427 -28.1818828 158.72729427 -38 162 C-40.43362472 162.17241708 -42.87320596 162.26665768 -45.3125 162.3125 C-46.60800781 162.34988281 -47.90351563 162.38726562 -49.23828125 162.42578125 C-53.56177855 161.93641343 -55.65700251 160.72598434 -59 158 C-60.56428238 154.87143524 -60.28007086 152.47287869 -60 149 C-57.61575974 142.76319181 -53.65825044 137.26149336 -49.875 131.8125 C-49.29878906 130.97444824 -48.72257813 130.13639648 -48.12890625 129.27294922 C-44.89003157 124.59866417 -41.5447355 120.07044698 -38 115.625 C-18.69716318 91.29905923 -18.69716318 91.29905923 -10 63 C-14.10733998 64.36911333 -15.05300595 67.0992445 -17.0625 70.6875 C-20.29635497 76.25586581 -23.67361841 81.66674906 -27.375 86.9375 C-27.79144775 87.5461792 -28.20789551 88.1548584 -28.63696289 88.78198242 C-29.8359375 90.46484375 -29.8359375 90.46484375 -32 93 C-32.99 93 -33.98 93 -35 93 C-39.37141624 84.82735225 -40.35295369 76.62982625 -38.17578125 67.5703125 C-36.90459513 63.40233422 -35.54769297 59.3178862 -33.875 55.29296875 C-32.89337134 52.7205758 -32.84398951 50.73018361 -33 48 C-35.40558087 48.0885427 -35.40558087 48.0885427 -38 49 C-45.10073113 58.63670653 -47.25065842 71.32060704 -48 83 C-52.03965395 81.16992713 -54.07705447 78.97192026 -56 75 C-58.72035784 67.31718684 -59.57357356 59.92245027 -59.625 51.8125 C-59.67011719 50.78447266 -59.71523437 49.75644531 -59.76171875 48.69726562 C-59.81154225 43.13482814 -59.38460242 39.7569627 -55.671875 35.4765625 C-54.47126147 34.2935392 -53.24762705 33.13333302 -52 32 C-51.11417236 31.09471558 -51.11417236 31.09471558 -50.21044922 30.17114258 C-40.64264736 20.46337442 -26.36023045 15.31449185 -13.60058594 11.47070312 C-8.61144682 9.89645048 -5.89793692 8.60867831 -3 4 C-2.13375 2.8553125 -2.13375 2.8553125 -1.25 1.6875 C-0.63125 0.8521875 -0.63125 0.8521875 0 0 Z " fill="#FDC194" transform="translate(236,150)"/>
<path d="M0 0 C4.28849101 -0.11036558 7.9050639 0.03283247 12 1.3125 C16.51520559 2.64964766 20.98698061 3.56172005 25.625 4.375 C34.93932583 6.20763612 40.85108562 9.41522608 47.3046875 16.2890625 C52.49096798 21.5231428 57.47749806 24.14067538 64.875 24.3125 C72.13952395 24.27196136 78.20271276 22.36953779 85 20 C100.22019271 14.81004311 115.81753418 17.3473816 130 24 C131.40556537 24.6216987 132.8131724 25.23879946 134.22265625 25.8515625 C136.30456669 26.75680339 138.38496756 27.66408315 140.45849609 28.58837891 C145.23512243 30.71332371 150.0007504 32.48237066 155 34 C156.19894324 48.17084301 156.19894324 48.17084301 153.78125 51.859375 C151.59942826 53.17995132 149.36864722 54.04728475 147 55 C144.27797105 56.46053029 141.61315909 58.01906393 138.9375 59.5625 C136.93658618 60.68453689 134.93208645 61.79989028 132.92651367 62.91357422 C131.65757035 63.62917399 130.39691564 64.35970667 129.14575195 65.10595703 C118.05551253 71.6991703 103.65608366 72.83549611 91 71 C80.47081275 68.16148639 72.58910129 60.7976968 65.25 53.125 C60.47765586 48.61778609 55.37672457 48.58781281 49.09375 48.6640625 C46.03138056 48.99659252 44.06251203 49.67208323 41.3125 51 C33.89941339 54.35210886 23.97215886 54.67161278 16.26953125 52.08203125 C7.54305576 47.0229676 4.72433938 37.14530887 2 28 C-0.16885088 18.67950237 -0.23676028 9.50987125 0 0 Z " fill="#1485C4" transform="translate(235,98)"/>
<path d="M0 0 C5.07460905 4.40533674 9.12316428 9.1545243 13 14.625 C15.45191711 17.93807026 15.45191711 17.93807026 19.078125 19.44140625 C21.46346329 19.16254476 23.67269454 18.59174898 26 18 C28.1843362 17.77866798 30.37241569 17.59191252 32.5625 17.4375 C34.11130859 17.31181641 34.11130859 17.31181641 35.69140625 17.18359375 C36.45324219 17.12300781 37.21507812 17.06242187 38 17 C36.5280145 26.27738229 33.77397134 34.49383726 28 42 C27.34 42 26.68 42 26 42 C25.67 40.02 25.34 38.04 25 36 C24.40574219 35.90203125 23.81148437 35.8040625 23.19921875 35.703125 C13.79626401 34.00679102 5.60220742 30.88897546 -2.875 26.5 C-21.08030151 17.21818753 -36.0423309 17.25023169 -55.2746582 22.86474609 C-62.9630806 25.04517052 -71.68048382 27.0327135 -79.1875 23.5 C-80.8079258 22.05962151 -82.41924516 20.60854107 -84.00390625 19.12890625 C-89.33312162 14.22602811 -94.39337777 10.94388348 -101 8 C-102.33650567 7.33971611 -103.67095168 6.67516871 -105 6 C-105 5.34 -105 4.68 -105 4 C-104.39414062 3.70867187 -103.78828125 3.41734375 -103.1640625 3.1171875 C-98.77935673 0.97205452 -94.62181889 -1.22412811 -90.5625 -3.9375 C-64.19721139 -20.16876221 -24.75591144 -17.94497699 0 0 Z " fill="#FC4634" transform="translate(373,89)"/>
<path d="M0 0 C3.57536318 1.10045726 6.31004131 2.66528519 9.484375 4.64453125 C26.191406 14.41907403 39.68180812 15.82433334 59.109375 14.95703125 C57.03208754 26.23189762 48.88632607 35.20534436 39.69775391 41.64794922 C36.02848323 44.10676627 32.34230103 46.52973548 28.59741211 48.87207031 C21.14096401 53.61079878 15.48484637 58.60718102 12.109375 66.95703125 C11.40179174 70.19372755 11.40179174 70.19372755 11.109375 72.95703125 C1.42182677 72.59823317 -6.09343204 67.62764347 -12.67578125 60.6953125 C-30.82238671 38.26009129 -30.82238671 38.26009129 -30.28125 25.58203125 C-29.55159463 20.67874718 -28.14809781 16.74494848 -24.890625 12.95703125 C-22.0004702 11.36936153 -19.14808312 10.31334545 -16.02734375 9.25390625 C-11.66898479 7.45194464 -8.6424265 4.64687803 -5.2421875 1.43359375 C-2.890625 -0.04296875 -2.890625 -0.04296875 0 0 Z " fill="#D43325" transform="translate(374.890625,198.04296875)"/>
<path d="M0 0 C-0.2165625 0.6290625 -0.433125 1.258125 -0.65625 1.90625 C-3.668248 10.92319947 -3.668248 10.92319947 -2.15625 20.09765625 C1.02129539 25.84085484 5.68497945 29.68269431 11.99609375 31.609375 C21.7086887 33.50266836 30.7705296 30.94933594 38.90234375 25.484375 C46.31325345 20.20482339 53.06677027 14.47351431 59.01953125 7.5703125 C60.3515625 6.10546875 60.3515625 6.10546875 63 4 C68.6047952 3.95014795 71.33713195 6.5093096 75.23046875 10.171875 C78.52339515 13.57383869 79.86655263 15.75449125 80.375 20.5 C79.71531276 26.65708092 76.4801917 29.93657032 72 34 C67.34791293 37.46314357 62.83176691 39.37472716 57.375 41.125 C56.57231689 41.38361816 55.76963379 41.64223633 54.94262695 41.90869141 C32.95771753 48.81085339 7.84661254 48.40852144 -13 38 C-13.91910156 37.54625 -14.83820313 37.0925 -15.78515625 36.625 C-21.49152633 33.53229869 -25.75153063 30.26883037 -28 24 C-28.29189474 18.5512981 -26.26277841 15.10082477 -22.9375 10.9921875 C-16.45225485 4.32389107 -9.39837065 0 0 0 Z " fill="#F9AA37" transform="translate(171,289)"/>
<path d="M0 0 C2.27276982 1.79755431 4.13774215 3.49414832 6.125 5.5625 C19.5951102 18.7247994 32.3027614 22.3563058 50.73583984 22.15405273 C53.15759953 22.11259994 55.57870181 22.06247891 58 22 C56.38575251 30.39594242 53.66665481 38.37527278 50.875 46.4375 C50.63011841 47.14732025 50.38523682 47.8571405 50.13293457 48.58847046 C41.16276621 74.50249317 31.76705308 97.17255428 5.93066406 110.02978516 C1.35172731 112.17728742 -3.295795 114.14458513 -8 116 C-8.71220703 116.28391602 -9.42441406 116.56783203 -10.15820312 116.86035156 C-15.65872624 119 -15.65872624 119 -18.75 119 C-22.08280282 117.5187543 -23.22714429 116.21740482 -25 113 C-25.94366536 107.91469224 -25.62503171 103.38551173 -23.125 98.8125 C-19.7756565 94.07322721 -15.00420256 90.83423862 -10 88 C-9.34 88 -8.68 88 -8 88 C-8 88.99 -8 89.98 -8 91 C-9.99330842 92.34331654 -11.99384866 93.67594012 -14 95 C-15.38868516 97.10039331 -15.38868516 97.10039331 -16 99 C-9.50798324 101.92730938 -2.87427912 102.32089516 3.91015625 100.0078125 C16.26744789 93.85523692 22.73945412 83.26035082 28 71 C28.36222656 70.18015625 28.72445312 69.3603125 29.09765625 68.515625 C32.91258171 58.22419817 32.09044118 45.36469261 29 35 C20.1824168 19.06052268 5.20007064 10.21944956 -11.734375 5.1875 C-13.47773782 4.74238609 -15.23704949 4.35978582 -17 4 C-12.02788459 0.68525639 -5.94036319 -0.76577898 0 0 Z " fill="#FAA87D" transform="translate(292,155)"/>
<path d="M0 0 C5.96992098 3.82976063 9.99769613 8.45979058 12.0703125 15.328125 C12.48847183 18.1343555 12.54827913 20.86918641 12.5078125 23.703125 C12.49951416 24.45190918 12.49121582 25.20069336 12.48266602 25.97216797 C12.23997114 33.91977754 10.17035836 39.27767375 4.8203125 45.203125 C-1.40700814 50.87749116 -7.73231058 51.92272455 -16.03125 51.671875 C-21.96449517 50.96820172 -26.06267671 48.52601428 -30.1796875 44.265625 C-34.98137585 38.13888057 -37.67765453 30.37406169 -37.24609375 22.578125 C-36.14665145 14.75986867 -33.74765741 7.86378835 -27.9296875 2.328125 C-19.28751305 -3.90333763 -9.5416158 -4.85630625 0 0 Z " fill="#FEFBFA" transform="translate(402.9296875,370.671875)"/>
<path d="M0 0 C27.63414634 0 27.63414634 0 33.875 5.5625 C37.6527491 9.89580043 37.33219021 13.40405233 37.28515625 19.0078125 C36.88204466 23.23772312 35.90351501 24.9351786 33 28 C31.68639511 28.70474423 30.35533352 29.37928003 29 30 C29.46224976 30.73319458 29.46224976 30.73319458 29.93383789 31.48120117 C31.32545908 33.70742601 32.69401079 35.94698821 34.0625 38.1875 C34.54783203 38.95642578 35.03316406 39.72535156 35.53320312 40.51757812 C39.04283955 46.31719008 39.04283955 46.31719008 38.80859375 50.05078125 C38.54175781 50.69402344 38.27492188 51.33726562 38 52 C36.25215533 52.13560864 34.50126074 52.23227209 32.75 52.3125 C31.77546875 52.37050781 30.8009375 52.42851562 29.796875 52.48828125 C27 52 27 52 24.84375 49.8671875 C22.94572743 46.91560155 21.29897379 43.96129773 19.75 40.8125 C19.22921875 39.76707031 18.7084375 38.72164063 18.171875 37.64453125 C17 35 17 35 17 33 C15.35 33 13.7 33 12 33 C12.01160156 34.28777344 12.02320313 35.57554687 12.03515625 36.90234375 C12.0445327 38.58072772 12.05363305 40.25911326 12.0625 41.9375 C12.07087891 42.78763672 12.07925781 43.63777344 12.08789062 44.51367188 C12.09111328 45.32255859 12.09433594 46.13144531 12.09765625 46.96484375 C12.10289307 47.7137085 12.10812988 48.46257324 12.11352539 49.23413086 C12 51 12 51 11 52 C7.37 52 3.74 52 0 52 C0 34.84 0 17.68 0 0 Z " fill="#FEFCFB" transform="translate(325,369)"/>
<path d="M0 0 C1.39456452 0.00667256 2.78911118 0.01863093 4.18359375 0.03515625 C4.89451172 0.03966797 5.60542969 0.04417969 6.33789062 0.04882812 C8.09899388 0.06064761 9.86005411 0.07858362 11.62109375 0.09765625 C15.66468571 11.88725405 19.50821496 23.73106691 23.12109375 35.66015625 C23.48332031 36.83102783 23.84554687 38.00189941 24.21875 39.20825195 C24.71181641 40.85700317 24.71181641 40.85700317 25.21484375 42.5390625 C25.51068359 43.51560791 25.80652344 44.49215332 26.11132812 45.49829102 C26.62109375 48.09765625 26.62109375 48.09765625 25.62109375 52.09765625 C21.99109375 52.09765625 18.36109375 52.09765625 14.62109375 52.09765625 C13.63109375 49.45765625 12.64109375 46.81765625 11.62109375 44.09765625 C6.34109375 44.09765625 1.06109375 44.09765625 -4.37890625 44.09765625 C-5.36890625 46.40765625 -6.35890625 48.71765625 -7.37890625 51.09765625 C-8.37890625 52.09765625 -8.37890625 52.09765625 -10.6640625 52.1953125 C-12.03884766 52.17791016 -12.03884766 52.17791016 -13.44140625 52.16015625 C-14.36050781 52.15113281 -15.27960938 52.14210938 -16.2265625 52.1328125 C-16.93683594 52.12121094 -17.64710937 52.10960937 -18.37890625 52.09765625 C-18.79466377 45.81784003 -17.30124706 40.76263797 -15.3515625 34.82421875 C-15.04318954 33.85986908 -14.73481659 32.89551941 -14.417099 31.90194702 C-13.76692597 29.87500285 -13.11193069 27.84959987 -12.45239258 25.82568359 C-11.43896776 22.71517176 -10.43992401 19.60032493 -9.44335938 16.484375 C-8.80941911 14.51405717 -8.17468166 12.54399561 -7.5390625 10.57421875 C-7.08745506 9.17123032 -7.08745506 9.17123032 -6.62672424 7.73989868 C-6.34650925 6.88165497 -6.06629425 6.02341125 -5.77758789 5.13916016 C-5.53110001 4.38083893 -5.28461212 3.6225177 -5.03065491 2.84121704 C-3.86691944 -0.27201304 -3.62099096 0.10465292 0 0 Z " fill="#FEFAF8" transform="translate(143.37890625,368.90234375)"/>
<path d="M0 0 C3.96 0 7.92 0 12 0 C12 6.6 12 13.2 12 20 C17.28 20 22.56 20 28 20 C27.98839844 18.64003906 27.97679687 17.28007812 27.96484375 15.87890625 C27.95546738 14.1067722 27.94636702 12.33463667 27.9375 10.5625 C27.92912109 9.66466797 27.92074219 8.76683594 27.91210938 7.84179688 C27.90727539 6.56079102 27.90727539 6.56079102 27.90234375 5.25390625 C27.89448853 4.06776733 27.89448853 4.06776733 27.88647461 2.85766602 C28 1 28 1 29 0 C32.63 0 36.26 0 40 0 C40 17.16 40 34.32 40 52 C36.37 52 32.74 52 29 52 C28 51 28 51 27.88647461 49.14233398 C27.89171143 48.35157471 27.89694824 47.56081543 27.90234375 46.74609375 C27.90556641 45.89208984 27.90878906 45.03808594 27.91210938 44.15820312 C27.92048828 43.26037109 27.92886719 42.36253906 27.9375 41.4375 C27.94201172 40.53580078 27.94652344 39.63410156 27.95117188 38.70507812 C27.96299756 36.47002411 27.98093362 34.23500398 28 32 C22.72 32 17.44 32 12 32 C12.01160156 33.35996094 12.02320313 34.71992188 12.03515625 36.12109375 C12.04453262 37.8932278 12.05363298 39.66536333 12.0625 41.4375 C12.07087891 42.33533203 12.07925781 43.23316406 12.08789062 44.15820312 C12.09111328 45.01220703 12.09433594 45.86621094 12.09765625 46.74609375 C12.10289307 47.53685303 12.10812988 48.3276123 12.11352539 49.14233398 C12 51 12 51 11 52 C9.33570949 52.09823937 7.66718069 52.12973631 6 52.125 C4.63875 52.12886719 4.63875 52.12886719 3.25 52.1328125 C1 52 1 52 0 51 C-0.09333705 49.40389018 -0.11745372 47.80366572 -0.11352539 46.20483398 C-0.11344986 45.18385117 -0.11337433 44.16286835 -0.11329651 43.11094666 C-0.10813522 42.0005452 -0.10297394 40.89014374 -0.09765625 39.74609375 C-0.0962413 38.61551041 -0.09482635 37.48492706 -0.09336853 36.32008362 C-0.08775019 32.69252935 -0.07519458 29.06503576 -0.0625 25.4375 C-0.05748736 22.98502693 -0.05292405 20.5325529 -0.04882812 18.08007812 C-0.0377748 12.05336187 -0.02049788 6.02669124 0 0 Z " fill="#FEFDFC" transform="translate(237,369)"/>
<path d="M0 0 C4.97600676 0.51553223 8.152023 2.05440864 12.375 4.6875 C27.80287356 13.76452972 41.08272966 16.03297079 59 16 C54.87928881 27.3405953 48.21847514 36.67366311 37 42 C30.92909571 43.98080652 26.12876701 42.88987229 20.4140625 40.2890625 C9.94622085 34.69943832 1.86546546 25.30303516 -2 14 C-2.72140645 8.77731788 -2.63557839 4.63607766 0 0 Z " fill="#FC4534" transform="translate(372,198)"/>
<path d="M0 0 C26.40681818 0 26.40681818 0 32.05859375 4.71875 C32.74115234 5.60046875 32.74115234 5.60046875 33.4375 6.5 C33.91058594 7.0878125 34.38367188 7.675625 34.87109375 8.28125 C37.81051021 12.75648613 37.52612883 17.86071263 37 23 C35.37494488 28.98268701 32.28595138 32.04422723 27 35.08984375 C23.36238904 36.74524093 20.22905319 37.12101549 16.25 37.0625 C15.45078125 37.05347656 14.6515625 37.04445313 13.828125 37.03515625 C13.22484375 37.02355469 12.6215625 37.01195312 12 37 C12.01160156 37.99902344 12.02320313 38.99804688 12.03515625 40.02734375 C12.04417969 41.31769531 12.05320313 42.60804688 12.0625 43.9375 C12.07410156 45.22527344 12.08570313 46.51304687 12.09765625 47.83984375 C12 51 12 51 11 52 C7.37 52 3.74 52 0 52 C0 34.84 0 17.68 0 0 Z " fill="#FEFCFB" transform="translate(176,369)"/>
<path d="M0 0 C0.33 0 0.66 0 1 0 C1.03963867 0.5669458 1.07927734 1.1338916 1.12011719 1.71801758 C3.38569227 32.81960697 9.95214734 62.33781572 34.2578125 83.984375 C67.34134958 111.9429645 110.72177606 109.3182888 151.39724278 109.26865101 C156.92819611 109.26352163 162.4591434 109.26830138 167.99009705 109.27142334 C177.27018442 109.27504275 186.55023977 109.27031716 195.83032227 109.26074219 C206.50096994 109.24985837 217.17154115 109.25339095 227.84218699 109.264395 C237.06840252 109.27352216 246.29459528 109.2747269 255.52081388 109.26951766 C261.00300976 109.26642802 266.4851699 109.26590459 271.96736336 109.27259064 C277.12470703 109.27844335 282.28195379 109.27422522 287.43928719 109.26280212 C289.31191854 109.26019744 291.18455832 109.26084695 293.05718613 109.26532745 C302.98328503 109.28685505 312.80396314 108.97854158 322.69456482 108.09710693 C323.58401198 108.01806444 324.47345915 107.93902195 325.38985926 107.85758424 C349.4393962 105.51656686 370.89656773 97.17753522 389 81 C389.63292969 80.46117187 390.26585937 79.92234375 390.91796875 79.3671875 C408.77722193 63.10178071 414.58184517 37.83948911 418 15 C418.66 15 419.32 15 420 15 C421.25278212 38.80286028 409.97753977 62.25175983 394.875 80 C375.32604536 101.03243349 347.16489967 110.44338234 319 112 C311.94214395 112.18917763 304.87960025 112.1472525 297.81982422 112.14526367 C295.6896509 112.1482602 293.55947811 112.15166386 291.42930603 112.15544128 C285.67072431 112.16423594 279.91215748 112.1666175 274.1535697 112.16725707 C270.54721391 112.16797023 266.94086185 112.17010958 263.33450699 112.17275429 C250.72853609 112.1819932 238.12257573 112.18609106 225.51660156 112.18530273 C213.80603448 112.18470256 202.09551356 112.19524635 190.38495815 112.2110464 C180.29789194 112.22416615 170.21084073 112.22948476 160.12376606 112.22884732 C154.11391583 112.22859361 148.10410664 112.23137434 142.09426498 112.24202538 C136.4355957 112.25178114 130.77700608 112.25173482 125.11833382 112.24450874 C123.0553596 112.24347208 120.99238022 112.24577033 118.92941475 112.2518692 C86.42008578 112.34166361 53.93001533 107.53487289 29.77734375 83.80859375 C28.40255859 82.41833984 28.40255859 82.41833984 27 81 C26.11441406 80.12472656 25.22882813 79.24945313 24.31640625 78.34765625 C6.46107775 59.8400783 -0.05662205 34.58773942 -1.8125 9.5625 C-1.86583496 8.83393799 -1.91916992 8.10537598 -1.97412109 7.35473633 C-2.06848414 5.57229944 -2.04413679 3.78438718 -2 2 C-1.34 1.34 -0.68 0.68 0 0 Z " fill="#FE5023" transform="translate(41,349)"/>
<path d="M0 0 C7.115625 -0.061875 7.115625 -0.061875 14.375 -0.125 C15.8707959 -0.14320801 17.3665918 -0.16141602 18.90771484 -0.18017578 C20.66656006 -0.18766846 20.66656006 -0.18766846 22.4609375 -0.1953125 C24.26763916 -0.21102295 24.26763916 -0.21102295 26.11083984 -0.22705078 C29 0 29 0 31 2 C31.32752234 4.71454956 31.1308425 7.25230759 31 10 C30 11 30 11 28.23413086 11.11352539 C27.48526611 11.10828857 26.73640137 11.10305176 25.96484375 11.09765625 C25.15595703 11.09443359 24.34707031 11.09121094 23.51367188 11.08789062 C22.66353516 11.07951172 21.81339844 11.07113281 20.9375 11.0625 C20.08349609 11.05798828 19.22949219 11.05347656 18.34960938 11.04882812 C16.23304337 11.03700373 14.11651315 11.01906769 12 11 C12 13.97 12 16.94 12 20 C12.99902344 19.98839844 13.99804688 19.97679687 15.02734375 19.96484375 C16.31769531 19.95582031 17.60804688 19.94679688 18.9375 19.9375 C20.22527344 19.92589844 21.51304687 19.91429687 22.83984375 19.90234375 C26 20 26 20 27 21 C27.14257189 24.33618231 27.04228157 27.65975606 27 31 C22.05 31 17.1 31 12 31 C12 34.3 12 37.6 12 41 C17.94 41 23.88 41 30 41 C30.09765625 48.71484375 30.09765625 48.71484375 30 51 C29 52 29 52 26.22436523 52.11352539 C25.01466064 52.10828857 23.80495605 52.10305176 22.55859375 52.09765625 C21.38353271 52.09515869 20.20847168 52.09266113 18.99780273 52.09008789 C17.49290283 52.08098389 15.98800293 52.07187988 14.4375 52.0625 C9.673125 52.041875 4.90875 52.02125 0 52 C0 34.84 0 17.68 0 0 Z " fill="#FEFCFB" transform="translate(287,369)"/>
<path d="M0 0 C0.80103149 0.00202423 1.60206299 0.00404846 2.42736816 0.00613403 C3.24483521 0.00517731 4.06230225 0.00422058 4.90454102 0.00323486 C6.63627194 0.00255308 8.3680054 0.00440724 10.09973145 0.00857544 C12.75978298 0.01392374 15.41966566 0.00863041 18.07971191 0.00222778 C19.75809771 0.00288857 21.43648339 0.00416973 23.11486816 0.00613403 C23.91589966 0.0041098 24.71693115 0.00208557 25.54223633 0 C31.15616738 0.02399575 31.15616738 0.02399575 32.27111816 1.13894653 C32.43908691 3.13504028 32.43908691 3.13504028 32.45861816 5.57644653 C32.47279785 6.37953247 32.48697754 7.18261841 32.50158691 8.01004028 C32.27111816 10.13894653 32.27111816 10.13894653 30.27111816 12.13894653 C27.66955566 12.33425903 27.66955566 12.33425903 24.64611816 12.26394653 C23.14178223 12.23687622 23.14178223 12.23687622 21.60705566 12.20925903 C20.83619629 12.18605591 20.06533691 12.16285278 19.27111816 12.13894653 C19.27897339 13.90322998 19.27897339 13.90322998 19.2869873 15.70315552 C19.30503479 20.05096684 19.31654924 24.39877483 19.3260498 28.74661255 C19.3310906 30.63138383 19.33792315 32.51615118 19.34655762 34.40090942 C19.35863433 37.10396289 19.36434885 39.80696484 19.36877441 42.51004028 C19.3739357 43.35795639 19.37909698 44.2058725 19.38441467 45.07948303 C19.38461011 47.09965722 19.33318027 49.11972587 19.27111816 51.13894653 C18.27111816 52.13894653 18.27111816 52.13894653 15.80236816 52.27175903 C14.30189941 52.26789185 14.30189941 52.26789185 12.77111816 52.26394653 C11.77080566 52.26652466 10.77049316 52.26910278 9.73986816 52.27175903 C7.27111816 52.13894653 7.27111816 52.13894653 6.27111816 51.13894653 C6.18246609 48.25460833 6.15590521 45.39432495 6.17346191 42.51004028 C6.17487686 41.64580948 6.17629181 40.78157867 6.17774963 39.89115906 C6.18336578 37.11955361 6.19592097 34.34802773 6.20861816 31.57644653 C6.21363109 29.70209874 6.21819435 27.82774968 6.22229004 25.95339966 C6.23334045 21.3485511 6.25061587 16.74376232 6.27111816 12.13894653 C5.41646973 12.1505481 4.56182129 12.16214966 3.68127441 12.17410278 C2.57654785 12.18312622 1.47182129 12.19214966 0.33361816 12.20144653 C-0.76853027 12.2130481 -1.87067871 12.22464966 -3.00622559 12.23660278 C-5.72888184 12.13894653 -5.72888184 12.13894653 -6.72888184 11.13894653 C-6.82712121 9.47465602 -6.85861814 7.80612722 -6.85388184 6.13894653 C-6.85645996 5.23144653 -6.85903809 4.32394653 -6.86169434 3.38894653 C-6.59737096 -1.08900248 -3.84370797 0.01642924 0 0 Z " fill="#FEF9F8" transform="translate(94.7288818359375,368.8610534667969)"/>
<path d="M0 0 C0.85980469 -0.00515625 1.71960938 -0.0103125 2.60546875 -0.015625 C4.8125 0.25 4.8125 0.25 6.8125 2.25 C5.71292969 2.93964844 4.61335938 3.62929687 3.48046875 4.33984375 C-11.24899243 13.66427373 -23.98044629 23.87005949 -35.3828125 37.1640625 C-37.40401276 39.50025501 -39.48128839 41.77964851 -41.5625 44.0625 C-44.63845565 47.47043062 -47.60611956 50.93628828 -50.5 54.5 C-51.60988281 55.86125 -51.60988281 55.86125 -52.7421875 57.25 C-54.02778271 58.82721585 -55.3126598 60.40503441 -56.59082031 61.98828125 C-70.3693828 78.97729427 -70.3693828 78.97729427 -80.1875 82.25 C-82.62112472 82.42241708 -85.06070596 82.51665768 -87.5 82.5625 C-88.79550781 82.59988281 -90.09101563 82.63726562 -91.42578125 82.67578125 C-95.74927855 82.18641343 -97.84450251 80.97598434 -101.1875 78.25 C-102.69412097 75.23675805 -102.36520373 72.56713623 -102.1875 69.25 C-101.1975 68.26 -101.1975 68.26 -100.1875 67.25 C-99.919375 68.36375 -99.65125 69.4775 -99.375 70.625 C-98.52940981 74.46840951 -98.52940981 74.46840951 -95.1875 76.25 C-87.98512149 77.38652211 -81.40188945 75.95828894 -75.1875 72.25 C-66.58065842 65.59606949 -59.61640006 57.39721414 -52.69628906 49.06152344 C-50.17869825 46.03878496 -47.62146735 43.0502185 -45.0625 40.0625 C-44.56451904 39.47968262 -44.06653809 38.89686523 -43.5534668 38.29638672 C-39.64780351 33.74245129 -35.6143889 29.31592718 -31.55078125 24.90234375 C-29.1573732 22.21618827 -26.92083196 19.44502161 -24.6875 16.625 C-18.13705039 8.52985217 -11.12693637 -0.06733396 0 0 Z " fill="#F6A77B" transform="translate(278.1875,229.75)"/>
<path d="M0 0 C4.05815467 1.35271822 4.52239698 3.19760788 6.625 6.875 C15.24524959 21.37150982 25.55208631 31.03000858 41 38 C41 38.33 41 38.66 41 39 C22.65663771 39.66838162 10.11619883 34.74258397 -4.91113281 24.39038086 C-7.59345986 22.54917599 -9.89564715 21.03478428 -13 20 C-11.61071336 16.89129919 -9.95864793 14.71612576 -7.625 12.25 C-4.18002001 8.42384269 -2.09346289 4.68935688 0 0 Z " fill="#CF3225" transform="translate(339,242)"/>
<path d="M0 0 C0.66 0 1.32 0 2 0 C2.04667126 27.71993074 2.08196489 55.43985561 2.10362434 83.1598177 C2.11394743 96.0299797 2.12802744 108.90011732 2.15087891 121.77026367 C2.17078122 132.98474763 2.18370892 144.19921394 2.18817699 155.41371506 C2.19078973 161.35452502 2.19695217 167.29528446 2.21146011 173.23607826 C2.22499416 178.82312756 2.22923113 184.41010536 2.22621536 189.99716949 C2.2267674 192.05192388 2.23076962 194.10668057 2.23841095 196.16142082 C2.24830684 198.95868047 2.24598854 201.75566727 2.24050903 204.55293274 C2.24633472 205.3729662 2.2521604 206.19299966 2.25816262 207.03788263 C2.23765157 210.89036441 2.18845887 212.7173117 0 216 C-1.78015772 214.21984228 -1.12518273 211.83044008 -1.13374341 209.45954549 C-1.13151268 208.65791593 -1.12928196 207.85628636 -1.12698364 207.03036499 C-1.12854363 206.18507064 -1.13010362 205.33977628 -1.13171089 204.46886694 C-1.13572477 201.61383017 -1.13252968 198.75884584 -1.12939453 195.90380859 C-1.13074846 193.86578337 -1.13252835 191.8277584 -1.13470459 189.78973389 C-1.13928164 184.23577515 -1.1374878 178.68183489 -1.1343255 173.1278758 C-1.13180124 167.3228497 -1.13413982 161.51782523 -1.13571167 155.71279907 C-1.13753404 145.95582799 -1.1351262 136.19886447 -1.13037109 126.44189453 C-1.12493748 115.16249146 -1.1266843 103.88310648 -1.1321975 92.60370386 C-1.13673762 82.92806893 -1.13737449 73.25243945 -1.13475883 63.5768038 C-1.13319984 57.79463188 -1.1329918 52.01246846 -1.13629532 46.23029709 C-1.13918673 40.78850968 -1.13717492 35.34674553 -1.13140106 29.90496063 C-1.1300799 27.9083294 -1.13045666 25.91169621 -1.13266373 23.91506577 C-1.13540073 21.18719646 -1.13196278 18.45940145 -1.12698364 15.73153687 C-1.12921436 14.94329163 -1.13144509 14.15504639 -1.13374341 13.34291494 C-1.11766821 8.79440834 -0.74757664 4.48834314 0 0 Z " fill="#FE6D26" transform="translate(40,136)"/>
<path d="M0 0 C2.17578125 1.53515625 2.17578125 1.53515625 3.17578125 2.53515625 C3.06692703 7.97786707 1.68034421 11.05584016 -1.97265625 14.890625 C-8.25271405 20.46848225 -13.65875914 22.0924627 -22.02734375 22.00390625 C-26.07372689 21.32574148 -28.76070089 19.59867411 -31.63671875 16.72265625 C-33.32411756 13.61429002 -33.52243352 12.02623009 -32.82421875 8.53515625 C-25.86087637 -0.48147939 -10.32946532 -5.35760649 0 0 Z " fill="#F8FBFD" transform="translate(346.82421875,130.46484375)"/>
<path d="M0 0 C4.56951925 1.91282201 6.86027954 4.56206127 9 9 C10.11353149 15.74305182 9.29830362 20.77937025 5.484375 26.44140625 C2.80655016 29.25312233 0.44143196 29.94277734 -3.375 30.4375 C-8.06084597 29.87196687 -9.80268167 28.42038706 -13 25 C-15.53735471 20.04062488 -15.7286289 14.46471671 -15 9 C-11.42936343 1.9862496 -7.96071838 -0.83797036 0 0 Z " fill="#FE5D31" transform="translate(394,380)"/>
<path d="M0 0 C7.45906034 2.63260953 11.592097 12.86293563 15.4375 19.375 C15.96601563 20.25929687 16.49453125 21.14359375 17.0390625 22.0546875 C23.6896511 33.22902673 23.6896511 33.22902673 23.1875 38.125 C22.5275 39.115 21.8675 40.105 21.1875 41.125 C17.8575893 40.90867169 17.04536282 39.9655852 14.77734375 37.421875 C13.88387356 36.24663749 13.00031747 35.06381938 12.125 33.875 C11.15859858 32.59977927 10.18978099 31.32638654 9.21875 30.0546875 C8.72246094 29.40338867 8.22617188 28.75208984 7.71484375 28.08105469 C4.84655183 24.40766036 1.78419434 20.89704383 -1.28344727 17.38964844 C-6.90324129 10.8793316 -6.90324129 10.8793316 -6.625 5.5 C-5.59641717 1.22742516 -4.41061024 0.19602712 0 0 Z " fill="#141417" transform="translate(130.8125,224.875)"/>
<path d="M0 0 C6.72008283 -0.9408116 11.41548318 1.49162951 16.76953125 5.23828125 C20.42284348 8.10937578 22.58839622 10.27664899 23.28515625 14.88671875 C23.56749781 18.80330302 23.48980075 20.42376382 20.875 23.5 C17.46483475 25.27921665 15.79446342 25.61950423 12 25 C6.1347037 21.94515818 1.7368745 17.23690247 -1.375 11.4375 C-2.13047259 8.4911569 -2.26347901 6.03000859 -2 3 C-1.34 2.01 -0.68 1.02 0 0 Z " fill="#F8FBFD" transform="translate(251,114)"/>
<path d="M0 0 C2.41643712 1.24072034 4.64957162 2.49686239 6.9375 3.9375 C7.57776123 4.33138916 8.21802246 4.72527832 8.87768555 5.13110352 C27.98362582 16.98362582 27.98362582 16.98362582 32 21 C31.625 23.125 31.625 23.125 31 25 C25.61037029 25.29663754 22.01985981 24.50653272 17.11328125 22.296875 C16.48898727 22.01781311 15.8646933 21.73875122 15.22148132 21.45123291 C13.91198051 20.86228288 12.60533616 20.26694354 11.30151367 19.66552734 C9.31437036 18.75086091 7.31760738 17.860502 5.31835938 16.97265625 C-5.77878709 11.95099244 -5.77878709 11.95099244 -9 8 C-9.4613148 4.77079642 -9.52482402 2.90386359 -7.875 0.0625 C-4.9924735 -1.57093168 -3.1757538 -0.77804098 0 0 Z " fill="#151317" transform="translate(104,251)"/>
<path d="M0 0 C-2.10504839 14.20241506 -12.62446354 26.29920572 -22.921875 35.50390625 C-25.00554993 37.00399553 -26.48927522 37.58720065 -29 38 C-28.36522325 33.69906365 -27.40116169 29.65494504 -26.125 25.5 C-25.63386719 23.87578125 -25.63386719 23.87578125 -25.1328125 22.21875 C-23.14275656 16.56424622 -21.48843208 12.81155601 -16.375 9.5 C-15.49585938 8.92121094 -14.61671875 8.34242188 -13.7109375 7.74609375 C-12.81632812 7.16988281 -11.92171875 6.59367188 -11 6 C-9.33318642 4.85438039 -7.66650929 3.70856221 -6 2.5625 C-2.25326371 0 -2.25326371 0 0 0 Z " fill="#D23326" transform="translate(383,161)"/>
<path d="M0 0 C2.90235821 1.02620493 4.54472854 1.99462296 6.76953125 4.0859375 C7.36507812 4.63378906 7.960625 5.18164062 8.57421875 5.74609375 C9.00992188 6.16761719 9.445625 6.58914063 9.89453125 7.0234375 C8.55256966 9.70736067 6.58447329 10.43188639 4.01953125 11.828125 C2.57537771 12.64046137 1.15832019 13.50251602 -0.23046875 14.40625 C-9.97160442 20.69191525 -21.41990373 25.60609589 -33.10546875 26.0234375 C-30.50499103 23.9162364 -27.88491887 21.86002336 -25.1953125 19.8671875 C-18.5829171 14.95090839 -12.66465989 9.92779329 -7.23999023 3.6953125 C-4.7895565 1.03991764 -3.68662559 0.02782359 0 0 Z " fill="#DA8945" transform="translate(237.10546875,292.9765625)"/>
<path d="M0 0 C7.34478153 3.61548961 13.29986054 5.23439013 21.28833008 3.46240234 C24.55467634 2.21525195 26.59127628 1.41293025 28.66333008 -1.41259766 C29.38773084 -3.87556024 29.43023151 -5.98337191 29.28833008 -8.53759766 C31.26833008 -8.53759766 33.24833008 -8.53759766 35.28833008 -8.53759766 C33.81634458 0.73978463 31.06230142 8.9562396 25.28833008 16.46240234 C24.62833008 16.46240234 23.96833008 16.46240234 23.28833008 16.46240234 C22.79333008 13.49240234 22.79333008 13.49240234 22.28833008 10.46240234 C21.39694336 10.31544922 21.39694336 10.31544922 20.48754883 10.16552734 C11.08459408 8.46919336 2.8905375 5.3513778 -5.58666992 0.96240234 C-16.77268229 -4.77538193 -27.15897996 -7.16120515 -39.71166992 -7.53759766 C-39.71166992 -7.86759766 -39.71166992 -8.19759766 -39.71166992 -8.53759766 C-25.64056006 -11.29064089 -12.47944453 -6.20073955 0 0 Z " fill="#CD3225" transform="translate(375.711669921875,114.53759765625)"/>
<path d="M0 0 C1.24136719 0.00515625 2.48273438 0.0103125 3.76171875 0.015625 C5.70111328 0.0465625 5.70111328 0.0465625 7.6796875 0.078125 C8.98035156 0.08328125 10.28101563 0.0884375 11.62109375 0.09375 C21.24618882 0.17387566 21.24618882 0.17387566 23.5546875 1.328125 C23.2890625 3.23046875 23.2890625 3.23046875 22.5546875 5.328125 C20.9453125 6.26953125 20.9453125 6.26953125 18.8046875 6.890625 C17.99644531 7.12523437 17.18820313 7.35984375 16.35546875 7.6015625 C15.43121094 7.84132813 14.50695312 8.08109375 13.5546875 8.328125 C11.96720703 8.74964844 11.96720703 8.74964844 10.34765625 9.1796875 C-4.73522575 12.93723901 -4.73522575 12.93723901 -9.4453125 10.140625 C-10.82855108 7.63350507 -10.93846553 6.1461423 -10.4453125 3.328125 C-7.17782154 0.03804544 -4.51721894 -0.03705257 0 0 Z " fill="#181518" transform="translate(104.4453125,287.671875)"/>
<path d="M0 0 C-2.28630209 2.28630209 -4.52656762 3.06861811 -7.50952148 4.20654297 C-21.18073797 9.4295227 -32.59090155 16.59090155 -43 27 C-43.53753906 27.53753906 -44.07507813 28.07507813 -44.62890625 28.62890625 C-54.29106242 39.13353926 -60.03422875 51.81116704 -65 65 C-65.66 64.67 -66.32 64.34 -67 64 C-64.02379781 46.55438931 -52.50898401 29.99453808 -39 19 C-38.27296875 18.36320312 -37.5459375 17.72640625 -36.796875 17.0703125 C-29.12393518 10.54069152 -10.44344326 -3.48114775 0 0 Z " fill="#FE7425" transform="translate(112,46)"/>
<path d="M0 0 C-2.26892626 3.41793666 -4.54047252 6.8341242 -6.8125 10.25 C-7.77639648 11.70212891 -7.77639648 11.70212891 -8.75976562 13.18359375 C-9.38173828 14.11816406 -10.00371094 15.05273438 -10.64453125 16.015625 C-11.21534424 16.87446289 -11.78615723 17.73330078 -12.37426758 18.61816406 C-12.91075928 19.40416992 -13.44725098 20.19017578 -14 21 C-14.50233154 21.76280273 -15.00466309 22.52560547 -15.5222168 23.31152344 C-16.00988525 23.8687207 -16.49755371 24.42591797 -17 25 C-17.99 25 -18.98 25 -20 25 C-23.05329386 19.62620281 -23.05329386 19.62620281 -22.828125 16.98046875 C-21.75740851 14.41984016 -20.47963292 13.59767622 -18.1875 12.0625 C-14.80508271 9.67561688 -12.58029325 7.24617537 -10 4 C-3.87234043 -1.29078014 -3.87234043 -1.29078014 0 0 Z " fill="#F3A57B" transform="translate(221,218)"/>
<path d="M0 0 C0.66 0 1.32 0 2 0 C3.19894324 14.17084301 3.19894324 14.17084301 0.78125 17.859375 C-1.40057174 19.17995132 -3.63135278 20.04728475 -6 21 C-8.72202895 22.46053029 -11.38684091 24.01906393 -14.0625 25.5625 C-16.06340297 26.6845308 -18.06782658 27.79987965 -20.07446289 28.91162109 C-21.3431074 29.62870201 -22.60071643 30.36572258 -23.84545898 31.12353516 C-27.53895874 33.35615416 -30.67283211 34.61819735 -34.9375 35.25 C-35.89527344 35.39953125 -36.85304688 35.5490625 -37.83984375 35.703125 C-38.90912109 35.85007812 -38.90912109 35.85007812 -40 36 C-40 35.34 -40 34.68 -40 34 C-39.22398437 33.731875 -38.44796875 33.46375 -37.6484375 33.1875 C-23.99568435 28.23471127 -8.64948739 21.72554567 -2 8 C-1.12179865 5.32899381 -0.54367951 2.76782295 0 0 Z " fill="#175D85" transform="translate(388,132)"/>
<path d="M0 0 C1.423125 -0.061875 2.84625 -0.12375 4.3125 -0.1875 C5.51326172 -0.23970703 5.51326172 -0.23970703 6.73828125 -0.29296875 C9 0 9 0 10.765625 1.265625 C12.52321111 3.73514473 12.47611328 6.09881958 12.33984375 9.05859375 C12 11 12 11 10.5 13.5 C6.85991277 15.68405234 4.20345267 15.28023018 0 15 C0 10.05 0 5.1 0 0 Z " fill="#FE6836" transform="translate(188,380)"/>
<path d="M0 0 C8.21900826 -0.48347107 8.21900826 -0.48347107 11.625 1.625 C13 4 13 4 13 7.0625 C12 10 12 10 10.4375 11.875 C6.85660328 13.52772156 3.92364165 13.19618208 0 13 C0 8.71 0 4.42 0 0 Z " fill="#FE6737" transform="translate(337,379)"/>
<path d="M0 0 C-0.99 3.3 -1.98 6.6 -3 10 C-3.33 9.34 -3.66 8.68 -4 8 C-15.38823056 9.87207674 -15.38823056 9.87207674 -24 17 C-25.2927165 19.32408959 -26.13820031 21.46529503 -27 24 C-27.33 24 -27.66 24 -28 24 C-27.72950593 17.50814244 -25.51442754 13.6418509 -21 9 C-14.43428616 3.49257556 -8.70147769 0 0 0 Z " fill="#D48541" transform="translate(171,289)"/>
<path d="M0 0 C16.22413632 1.08160909 30.91389663 8.0677948 42 20 C43.27734375 22.2734375 43.27734375 22.2734375 44 24 C40.60520688 22.38343185 37.43847663 20.49068911 34.25 18.5 C33.26515625 17.8915625 32.2803125 17.283125 31.265625 16.65625 C30.51796875 16.1096875 29.7703125 15.563125 29 15 C29 14.34 29 13.68 29 13 C28.33613281 12.7421875 27.67226563 12.484375 26.98828125 12.21875 C24.73183928 11.29847563 22.51323498 10.34481444 20.29296875 9.34375 C19.62330078 9.04339844 18.95363281 8.74304688 18.26367188 8.43359375 C16.88929803 7.81557804 15.51685972 7.19323822 14.14648438 6.56640625 C9.49238588 4.49099008 4.97467948 3.11414994 0 2 C0 1.34 0 0.68 0 0 Z " fill="#E03A2B" transform="translate(338,76)"/>
<path d="M0 0 C0.99 0.33 1.98 0.66 3 1 C3.4125 1.928125 3.825 2.85625 4.25 3.8125 C6.83897243 8.52812835 10.17868336 10.08497839 15.3125 11.75 C16.6428125 11.87375 16.6428125 11.87375 18 12 C19.00933594 12.09474609 19.00933594 12.09474609 20.0390625 12.19140625 C25.43195378 12.46368578 29.83913602 11.58925409 35 10 C41.97679243 7.85913442 48.07289263 6.74332564 55.125 9 C56.053125 9.495 56.053125 9.495 57 10 C57 10.66 57 11.32 57 12 C56.29230469 11.84144531 55.58460938 11.68289062 54.85546875 11.51953125 C48.13480511 10.29675661 41.54964208 9.9775493 35.3125 13 C27.89941339 16.35210886 17.97215886 16.67161278 10.26953125 14.08203125 C5.33420868 11.22084049 1.98176929 7.10893607 0.25 1.625 C0.1675 1.08875 0.085 0.5525 0 0 Z " fill="#17628C" transform="translate(241,136)"/>
<path d="M0 0 C6.46384479 3.18184599 12.06910258 4.75706469 19.28833008 4.46240234 C18.62833008 5.12240234 17.96833008 5.78240234 17.28833008 6.46240234 C16.29833008 6.46240234 15.30833008 6.46240234 14.28833008 6.46240234 C14.28833008 7.12240234 14.28833008 7.78240234 14.28833008 8.46240234 C8.20545238 7.60866512 3.54392728 5.66104661 -1.77416992 2.64990234 C-13.92284089 -4.1200029 -25.78351803 -7.29820755 -39.71166992 -7.53759766 C-39.71166992 -7.86759766 -39.71166992 -8.19759766 -39.71166992 -8.53759766 C-25.64056006 -11.29064089 -12.47944453 -6.20073955 0 0 Z " fill="#D53829" transform="translate(375.711669921875,114.53759765625)"/>
<path d="M0 0 C3.5708936 1.30280239 6.77264619 2.9723427 10.06225586 4.86889648 C17.83028467 9.29548965 25.08652442 11.70592845 34 13 C34.87527344 13.12890625 35.75054687 13.2578125 36.65234375 13.390625 C38.43063918 13.62814776 40.21481573 13.82148157 42 14 C42 14.33 42 14.66 42 15 C26.19760491 16.00156025 15.69081405 14.69867279 3.125 4.125 C1.2578125 2.3828125 1.2578125 2.3828125 0 1 C0 0.67 0 0.34 0 0 Z " fill="#175F88" transform="translate(304,154)"/>
<path d="M0 0 C4.83577293 -0.09200044 8.47149462 0.23277839 13 2 C13 2.33 13 2.66 13 3 C10.03 3 7.06 3 4 3 C3.67 11.25 3.34 19.5 3 28 C2.67 28 2.34 28 2 28 C0.21168141 18.53149174 -0.23889655 9.59567793 0 0 Z " fill="#16597E" transform="translate(235,98)"/>
<path d="M0 0 C2.77579761 2.77579761 2.86061387 5.30306937 3.625 9.125 C3.88539063 10.40632813 4.14578125 11.68765625 4.4140625 13.0078125 C4.60742188 13.99523437 4.80078125 14.98265625 5 16 C2.03 16 -0.94 16 -4 16 C-3.47606294 10.13190493 -2.23891142 5.45126259 0 0 Z " fill="#FE6333" transform="translate(147,385)"/>
<path d="M0 0 C0.66 0.33 1.32 0.66 2 1 C1.67 1.66 1.34 2.32 1 3 C1.66 3.185625 2.32 3.37125 3 3.5625 C7.26905268 5.60808774 10.74163706 8.57184643 14 12 C14 12.66 14 13.32 14 14 C11.58104663 12.88355998 9.5059998 11.6553487 7.3125 10.125 C3.37631705 7.5999015 -0.69512437 5.79848138 -5 4 C-5 3.34 -5 2.68 -5 2 C-2.625 0.9375 -2.625 0.9375 0 0 Z " fill="#CB3628" transform="translate(273,91)"/>
<path d="M0 0 C0 0.66 0 1.32 0 2 C-0.64324219 1.83628906 -1.28648437 1.67257813 -1.94921875 1.50390625 C-5.92840171 0.84665324 -9.7881437 0.893647 -13.8125 0.9375 C-14.60076172 0.94201172 -15.38902344 0.94652344 -16.20117188 0.95117188 C-18.13414761 0.96288688 -20.06708393 0.98082002 -22 1 C-15.73174215 -3.17883857 -6.707998 -3.57759893 0 0 Z " fill="#166FA0" transform="translate(298,146)"/>
<path d="M0 0 C6.6 0.99 13.2 1.98 20 3 C20 3.33 20 3.66 20 4 C17.39576408 4.02697137 14.79180756 4.04682489 12.1875 4.0625 C11.44951172 4.07087891 10.71152344 4.07925781 9.95117188 4.08789062 C6.70077932 4.10259828 4.10595105 4.03531702 1 3 C0.67 2.01 0.34 1.02 0 0 Z " fill="#176B98" transform="translate(326,165)"/>
<path d="M0 0 C0.33 0 0.66 0 1 0 C1.02505615 0.55985596 1.0501123 1.11971191 1.07592773 1.6965332 C1.19203745 4.23541305 1.3146958 6.77393553 1.4375 9.3125 C1.47681641 10.19357422 1.51613281 11.07464844 1.55664062 11.98242188 C1.59853516 12.82998047 1.64042969 13.67753906 1.68359375 14.55078125 C1.72025146 15.33106689 1.75690918 16.11135254 1.79467773 16.9152832 C1.94125263 19.19329101 1.94125263 19.19329101 3 22 C2.0625 24.1875 2.0625 24.1875 1 26 C0.67 26 0.34 26 0 26 C0 17.42 0 8.84 0 0 Z " fill="#FE5724" transform="translate(460,331)"/>
<path d="M0 0 C0.99 0.33 1.98 0.66 3 1 C4.85026394 5.71817304 5.19884975 9.08471601 4 14 C2.30566082 10.9530371 1.50532888 8.17178534 0.875 4.75 C0.70742188 3.85796875 0.53984375 2.9659375 0.3671875 2.046875 C0.18542969 1.03367187 0.18542969 1.03367187 0 0 Z " fill="#FC7225" transform="translate(454,108)"/>
<path d="M0 0 C0.66 0 1.32 0 2 0 C1.34 3.96 0.68 7.92 0 12 C-0.99 12.33 -1.98 12.66 -3 13 C-2.69240822 11.02006459 -2.3787932 9.04106401 -2.0625 7.0625 C-1.88847656 5.96035156 -1.71445312 4.85820313 -1.53515625 3.72265625 C-1 1 -1 1 0 0 Z " fill="#FE6F25" transform="translate(44,113)"/>
<path d="M0 0 C3.96 0 7.92 0 12 0 C11.34 0.66 10.68 1.32 10 2 C9.01 2 8.02 2 7 2 C7 2.66 7 3.32 7 4 C4.69 3.34 2.38 2.68 0 2 C0 1.34 0 0.68 0 0 Z " fill="#DD3829" transform="translate(383,119)"/>
<path d="M0 0 C2 2 2 2 2 6 C0.02 6.99 0.02 6.99 -2 8 C-1.125 1.125 -1.125 1.125 0 0 Z " fill="#FE774D" transform="translate(147,385)"/>
</svg>
